<svg xmlns="http://www.w3.org/2000/svg" xmlns:xlink="http://www.w3.org/1999/xlink" xmlns:inkscape="http://www.inkscape.org/namespaces/inkscape" version="1.1" width="371.18" height="367.69" viewBox="0 0 371.18 367.69">
<path transform="matrix(1,0,0,-1,0,367.69)" d="M109.16998 102.88 107.70996 90.47998C107.26001 86.69 105.90997 82.28998 104.79999 78.13 101.54999 65.96002 91.45001 57.53998 80.06 57.53998 78.23999 57.53998 76.38995 57.76001 74.52997 58.20001 58.88 61.97003 58.26001 89.34998 58.10999 106.73999 58.03998 115.67999 58.12 124.08002 59.17999 133.07L60.38995 143.23999C62.94 164.75 68.57996 185.63 76.95996 206.34003 77.90997 208.68 78.87 210.40003 81.04999 212.5 88.79999 196.27002 96.70996 180.91999 101.64996 163.43L105.67999 149.22003C107.76996 141.83002 109.10999 130.08002 108.78998 121.95001 108.53998 115.65002 109.89996 109.08002 109.16998 102.88M301.99 144.89002C294.56 150.89002 286.71998 156.38 278.52998 161.31 289.71998 170.10999 299.76997 180.54999 308.02998 192.16999 319.47999 208.25 327.51997 226.6 330.45 246.08002 333.44 265.91 330.63 286.79 322.43 305.02003 316.77998 317.63 308.53999 328.98 297.86 337.84004 280.37 352.36 257.88996 359.30003 235.5 361.15 231.16999 361.51 226.83997 361.69 222.50995 361.69 200.39997 361.69 178.40998 357.14 157.68 349.46003 145 344.77003 132.77997 338.83003 121.26001 331.75 118.38995 329.99 88.38 309.46003 89.63995 307.78 83.07001 316.63 76.51001 325.49 69.94 334.35 51.26001 330.91999 32.58997 327.5 13.90997 324.07 13.26996 323.96003 12.62 323.84004 11.97998 323.72 12.67999 322.66999 13.38 321.61 14.07001 320.56 26.79999 301.37 39.51996 282.19 52.23999 263 38.39996 241.04001 27.65997 217.21002 20.13995 192.38 10.33997 160 6 125.91998 7.38995 92.09998 8.06 75.92999 10.06 59.54999 16.40997 44.66003 19.32001 37.85999 23.21997 31.37 28.02997 25.72998 33.73999 19.03003 40.73999 13.54004 48.84998 10.16003 55.78998 7.26001 63.27997 6 70.81 6 75.64996 6 80.5 6.52002 85.22998 7.46002 101.23999 10.64001 116.26996 18.57001 127.92999 29.97998 143.53998 45.25 152.71997 66.16003 157.07 87.54999 168.81 145.28003 147.33997 204.79999 118.19 255.98999 117.09998 257.90003 115.97998 259.98 115.53998 262.1 115.27997 263.31 115.26001 264.54 115.58997 265.76 116.20996 268 117.94 269.73 119.63995 271.31 141.04999 291.16 168.27997 304.64 197.03998 309.62 203.15998 310.68 209.51996 311.26 215.87 311.26 237.23999 311.26 258.62 304.72 270.87 287.84004 283.14997 270.90003 282.89997 246.98001 273.83003 228.12 264.75 209.27002 248.08002 194.98999 229.88 184.65003 211.68 174.32 191.76996 167.46002 172.33997 159.68 219.63 144.93 262.21998 115.67999 293.34999 77.20001 300.07 68.91003 306.25 60.19 311.83003 51.09003 329.61 54.31 347.39997 57.53003 365.18 60.76001 351.59999 93.5 329.58003 122.65002 301.99 144.89002" fill="#bfec3c"/>
</svg>
